# xmcd
#
# Track frame offsets:
#	150
#	12417
#	26190
#	39937
#	52172
#	65180
#	78927
#	92532
#	105827
#	119672
#	132502
#	142665
#	155092
#	165707
#
# Disc length: 2344 seconds
#
# Revision: 1
# Processed by: cddbd v1.5.1PL0 Copyright (c) Steve Scherf et al.
# Submitted via: CDex 1.50Beta5
#
DISCID=bb09260e
DTITLE=さまざまなアーティスト - HERE IS THE BLUES
DYEAR=1900
DGENRE=
TTITLE0=ROBERT JOHNSON/CROSS ROAD BLUES
TTITLE1=ROBERT JOHNSON/SWEET HOME CHICAGO
TTITLE2=LIGHTNIN' HOPKINS/MOJO HAND
TTITLE3=MUDDY WARTERS/LONG DISTANCE CALL
TTITLE4=MUDDY WARTERS/HOOCHIE COOHIE
TTITLE5=T-BONE WALKER/STORMY MONDAY
TTITLE6=T-BONE WALKER/T-BONE SHUFFLE
TTITLE7=ELMORE JAMES/DUST MY BROOM
TTITLE8=B.B.KING/YOU UPSET MY BABY
TTITLE9=B.B.KING/EVERY DAY I HAVE THE BLUES
TTITLE10=CLARENCE BROWN/PLAYBOY
TTITLE11=OTIS RUSH/DOUBLE TROUBLE
TTITLE12=BUDDY GUY/FIRST TIME I MET THE BLUES
TTITLE13=ALBERT COLLINS/COLLINS SHUFFLE
EXTD=
EXTT0=
EXTT1=
EXTT2=
EXTT3=
EXTT4=
EXTT5=
EXTT6=
EXTT7=
EXTT8=
EXTT9=
EXTT10=
EXTT11=
EXTT12=
EXTT13=
PLAYORDER=
